<?xml version="1.0" standalone="no"?>
<!DOCTYPE svg PUBLIC "-//W3C//DTD SVG 20010904//EN"
 "http://www.w3.org/TR/2001/REC-SVG-20010904/DTD/svg10.dtd">
<svg version="1.0" xmlns="http://www.w3.org/2000/svg"
 width="40.000000pt" height="40.000000pt" viewBox="0 0 40.000000 40.000000"
 preserveAspectRatio="xMidYMid meet">

<g transform="translate(0.000000,40.000000) scale(0.100000,-0.100000)"
fill="#000000" stroke="none">
<path d="M150 361 c-43 -26 -45 -29 -48 -81 -3 -43 1 -57 14 -67 17 -12 17
-14 0 -26 -13 -10 -17 -24 -14 -67 3 -52 4 -54 50 -82 l48 -27 48 27 c46 28
47 30 50 82 3 43 -1 57 -14 67 -17 12 -17 14 0 26 13 10 17 24 14 67 -3 52 -5
55 -48 81 -25 15 -47 27 -50 27 -3 0 -25 -12 -50 -27z m78 -47 c31 -21 29 -61
-3 -76 -58 -26 -104 40 -53 76 12 9 25 16 28 16 3 0 16 -7 28 -16z m3 -154
c27 -15 24 -56 -6 -76 -23 -15 -27 -15 -50 0 -59 38 -7 109 56 76z"/>
</g>
</svg>
